<svg width="426" height="426" viewBox="0 0 426 426" fill="none" xmlns="http://www.w3.org/2000/svg">
<path d="M416.628 244.997L235.625 372.974C223.13 381.809 202.87 381.809 190.375 372.974L9.37173 244.997C3.1239 240.58 -3.95076e-06 234.79 0 229V196.6H426V229C426 234.79 422.876 240.58 416.628 244.997Z" fill="url(#paint0_linear_544_230)"/>
<path d="M416.628 244.997L235.625 372.974C223.13 381.809 202.87 381.809 190.375 372.974L9.37173 244.997C3.1239 240.58 -3.95076e-06 234.79 0 229V196.6H426V229C426 234.79 422.876 240.58 416.628 244.997Z" fill="url(#paint1_linear_544_230)"/>
<path d="M416.628 180.603L235.625 52.6262C223.13 43.7913 202.87 43.7913 190.375 52.6262L9.37173 180.603C-3.12391 189.438 -3.12391 203.762 9.37173 212.597L190.375 340.574C202.87 349.409 223.13 349.409 235.625 340.574L416.628 212.597C429.124 203.762 429.124 189.438 416.628 180.603Z" fill="#D9D9D9"/>
<path d="M416.628 180.603L235.625 52.6262C223.13 43.7913 202.87 43.7913 190.375 52.6262L9.37173 180.603C-3.12391 189.438 -3.12391 203.762 9.37173 212.597L190.375 340.574C202.87 349.409 223.13 349.409 235.625 340.574L416.628 212.597C429.124 203.762 429.124 189.438 416.628 180.603Z" fill="url(#paint2_linear_544_230)"/>
<path d="M416.628 180.603L235.625 52.6262C223.13 43.7913 202.87 43.7913 190.375 52.6262L9.37173 180.603C-3.12391 189.438 -3.12391 203.762 9.37173 212.597L190.375 340.574C202.87 349.409 223.13 349.409 235.625 340.574L416.628 212.597C429.124 203.762 429.124 189.438 416.628 180.603Z" fill="url(#paint3_linear_544_230)"/>
<g filter="url(#filter0_d_544_230)">
<path d="M197.056 150.108L290.596 213.945L310.832 199.599L289.153 184.23L288.86 177.31L335.236 182.298L359.102 165.378L288.049 158.111L286.355 118L263.968 133.871L265.867 167.722L217.292 135.762L197.056 150.108Z" fill="url(#paint4_linear_544_230)"/>
<path fill-rule="evenodd" clip-rule="evenodd" d="M192.905 289L70 201.714L116.393 168.767C129.906 159.17 143.124 153.539 156.048 151.875C168.971 150.211 180.919 153.275 191.893 161.069C198.702 165.905 202.718 171.006 203.941 176.372C205.165 181.658 204.302 186.506 201.354 190.918L201.692 191.158C208.978 188.301 216.935 187.286 225.563 188.113C234.247 188.9 242.613 192.151 250.66 197.866C261.803 205.779 266.398 214.825 264.446 225.004C262.551 235.142 254.96 244.929 241.672 254.366L192.905 289ZM221.999 242.08L200.456 257.38L163.905 231.422L185.448 216.123C192.007 211.465 198.473 209.23 204.846 209.42C211.22 209.529 217.193 211.562 222.764 215.519C228.392 219.516 231.31 223.797 231.521 228.364C231.732 232.85 228.557 237.422 221.999 242.08ZM165.937 205.64L146.77 219.252L114.693 196.472L133.861 182.859C140.363 178.241 146.435 175.887 152.076 175.798C157.717 175.708 163.07 177.462 168.135 181.059C173.256 184.696 175.809 188.557 175.796 192.643C175.726 196.69 172.44 201.022 165.937 205.64Z" fill="url(#paint5_linear_544_230)"/>
</g>
<defs>
<filter id="filter0_d_544_230" x="51.6" y="107.6" width="325.902" height="207.8" filterUnits="userSpaceOnUse" color-interpolation-filters="sRGB">
<feFlood flood-opacity="0" result="BackgroundImageFix"/>
<feColorMatrix in="SourceAlpha" type="matrix" values="0 0 0 0 0 0 0 0 0 0 0 0 0 0 0 0 0 0 127 0" result="hardAlpha"/>
<feOffset dy="8"/>
<feGaussianBlur stdDeviation="9.2"/>
<feComposite in2="hardAlpha" operator="out"/>
<feColorMatrix type="matrix" values="0 0 0 0 0 0 0 0 0 0 0 0 0 0 0 0 0 0 0.25 0"/>
<feBlend mode="normal" in2="BackgroundImageFix" result="effect1_dropShadow_544_230"/>
<feBlend mode="normal" in="SourceGraphic" in2="effect1_dropShadow_544_230" result="shape"/>
</filter>
<linearGradient id="paint0_linear_544_230" x1="127.008" y1="227.288" x2="174.926" y2="391.583" gradientUnits="userSpaceOnUse">
<stop stop-color="#0F3F7D"/>
<stop offset="1" stop-color="#10284C"/>
</linearGradient>
<linearGradient id="paint1_linear_544_230" x1="213" y1="196.6" x2="213" y2="379.6" gradientUnits="userSpaceOnUse">
<stop stop-color="#10243E"/>
<stop offset="1" stop-color="#0F1B2D"/>
</linearGradient>
<linearGradient id="paint2_linear_544_230" x1="213" y1="46" x2="213" y2="347.2" gradientUnits="userSpaceOnUse">
<stop stop-color="#10243E"/>
<stop offset="1" stop-color="#0F1B2D"/>
</linearGradient>
<linearGradient id="paint3_linear_544_230" x1="127.008" y1="96.51" x2="241.48" y2="334.974" gradientUnits="userSpaceOnUse">
<stop stop-color="#0F3F7D"/>
<stop offset="1" stop-color="#10284C"/>
</linearGradient>
<linearGradient id="paint4_linear_544_230" x1="318.524" y1="40.5884" x2="402.41" y2="158.706" gradientUnits="userSpaceOnUse">
<stop offset="0.34" stop-color="#EAF6FF"/>
<stop offset="0.64" stop-color="#97CBFF"/>
</linearGradient>
<linearGradient id="paint5_linear_544_230" x1="318.524" y1="40.5884" x2="402.41" y2="158.706" gradientUnits="userSpaceOnUse">
<stop offset="0.34" stop-color="#EAF6FF"/>
<stop offset="0.64" stop-color="#97CBFF"/>
</linearGradient>
</defs>
</svg>
